HIERARCHY
ROOT Hips
{
  OFFSET -5.04345 99.448 -0.47129
  CHANNELS 6 Xposition Yposition Zposition Zrotation Xrotation Yrotation
  JOINT Spine
  {
    OFFSET 0 10.1816 0.1315
    CHANNELS 6 Xposition Yposition Zposition Zrotation Xrotation Yrotation
    JOINT Spine1
    {
      OFFSET 0 10.0835 -1.0008
      CHANNELS 6 Xposition Yposition Zposition Zrotation Xrotation Yrotation
      JOINT Spine2
      {
        OFFSET 0 9.1 -1.3734
        CHANNELS 6 Xposition Yposition Zposition Zrotation Xrotation Yrotation
        JOINT Neck
        {
          OFFSET 0 16.6717 -2.5162
          CHANNELS 6 Xposition Yposition Zposition Zrotation Xrotation Yrotation
          JOINT Head
          {
            OFFSET 0 9.6179 1.685
            CHANNELS 6 Xposition Yposition Zposition Zrotation Xrotation Yrotation
            JOINT HeadTop_End
            {
              OFFSET 0 17.8152 2.585
              CHANNELS 6 Xposition Yposition Zposition Zrotation Xrotation Yrotation
              End Site
              {
                OFFSET 0 0 0
              }
            }
            JOINT LeftEye
            {
              OFFSET 3.0676 6.4095 9.2836
              CHANNELS 6 Xposition Yposition Zposition Zrotation Xrotation Yrotation
              End Site
              {
                OFFSET 0 0 0
              }
            }
            JOINT RightEye
            {
              OFFSET -3.0676 6.4095 9.2835
              CHANNELS 6 Xposition Yposition Zposition Zrotation Xrotation Yrotation
              End Site
              {
                OFFSET 0 0 0
              }
            }
          }
        }
        JOINT LeftShoulder
        {
          OFFSET 4.5704 10.946 -2.628
          CHANNELS 6 Xposition Yposition Zposition Zrotation Xrotation Yrotation
          JOINT LeftArm
          {
            OFFSET 10.5924 -0.5246 -2.2321
            CHANNELS 6 Xposition Yposition Zposition Zrotation Xrotation Yrotation
            JOINT LeftForeArm
            {
              OFFSET 27.8415 -0.0001 0
              CHANNELS 6 Xposition Yposition Zposition Zrotation Xrotation Yrotation
              JOINT LeftHand
              {
                OFFSET 28.3288 0 0
                CHANNELS 6 Xposition Yposition Zposition Zrotation Xrotation Yrotation
                JOINT LeftHandThumb1
                {
                  OFFSET 2.4661 -1.575 2.6824
                  CHANNELS 6 Xposition Yposition Zposition Zrotation Xrotation Yrotation
                  JOINT LeftHandThumb2
                  {
                    OFFSET 3.2298 -1.8647 1.8647
                    CHANNELS 6 Xposition Yposition Zposition Zrotation Xrotation Yrotation
                    JOINT LeftHandThumb3
                    {
                      OFFSET 2.6526 -1.5315 1.5315
                      CHANNELS 6 Xposition Yposition Zposition Zrotation Xrotation Yrotation
                      End Site
                      {
                        OFFSET 1.9546 -1.1285 1.1285
                      }
                    }
                  }
                }
                JOINT LeftHandIndex1
                {
                  OFFSET 9.1093 -0.5171 2.2601
                  CHANNELS 6 Xposition Yposition Zposition Zrotation Xrotation Yrotation
                  JOINT LeftHandIndex2
                  {
                    OFFSET 3.6764 0 0
                    CHANNELS 6 Xposition Yposition Zposition Zrotation Xrotation Yrotation
                    JOINT LeftHandIndex3
                    {
                      OFFSET 2.8831 0 0
                      CHANNELS 6 Xposition Yposition Zposition Zrotation Xrotation Yrotation
                      End Site
                      {
                        OFFSET 2.3927 0 0
                      }
                    }
                  }
                }
                JOINT LeftHandMiddle1
                {
                  OFFSET 9.5334 0 0
                  CHANNELS 6 Xposition Yposition Zposition Zrotation Xrotation Yrotation
                  JOINT LeftHandMiddle2
                  {
                    OFFSET 3.6982 0 0
                    CHANNELS 6 Xposition Yposition Zposition Zrotation Xrotation Yrotation
                    JOINT LeftHandMiddle3
                    {
                      OFFSET 2.9509 0 0
                      CHANNELS 6 Xposition Yposition Zposition Zrotation Xrotation Yrotation
                      End Site
                      {
                        OFFSET 2.8339 0 0
                      }
                    }
                  }
                }
                JOINT LeftHandRing1
                {
                  OFFSET 9.1045 -0.0439 -1.8651
                  CHANNELS 6 Xposition Yposition Zposition Zrotation Xrotation Yrotation
                  JOINT LeftHandRing2
                  {
                    OFFSET 3.154 0 0
                    CHANNELS 6 Xposition Yposition Zposition Zrotation Xrotation Yrotation
                    JOINT LeftHandRing3
                    {
                      OFFSET 2.9377 0 0
                      CHANNELS 6 Xposition Yposition Zposition Zrotation Xrotation Yrotation
                      End Site
                      {
                        OFFSET 2.6475 0 0
                      }
                    }
                  }
                }
                JOINT LeftHandPinky1
                {
                  OFFSET 8.0778 -0.4887 -3.8061
                  CHANNELS 6 Xposition Yposition Zposition Zrotation Xrotation Yrotation
                  JOINT LeftHandPinky2
                  {
                    OFFSET 3.6 0 0
                    CHANNELS 6 Xposition Yposition Zposition Zrotation Xrotation Yrotation
                    JOINT LeftHandPinky3
                    {
                      OFFSET 2.1142 0 0
                      CHANNELS 6 Xposition Yposition Zposition Zrotation Xrotation Yrotation
                      End Site
                      {
                        OFFSET 1.9757 0 0
                      }
                    }
                  }
                }
              }
            }
          }
        }
        JOINT RightShoulder
        {
          OFFSET -4.57 10.9462 -2.628
          CHANNELS 6 Xposition Yposition Zposition Zrotation Xrotation Yrotation
          JOINT RightArm
          {
            OFFSET -10.5928 -0.5248 -2.2321
            CHANNELS 6 Xposition Yposition Zposition Zrotation Xrotation Yrotation
            JOINT RightForeArm
            {
              OFFSET -27.8415 0 0
              CHANNELS 6 Xposition Yposition Zposition Zrotation Xrotation Yrotation
              JOINT RightHand
              {
                OFFSET -28.3288 0 0.0001
                CHANNELS 6 Xposition Yposition Zposition Zrotation Xrotation Yrotation
                JOINT RightHandPinky1
                {
                  OFFSET -8.0767 -0.4885 -3.806
                  CHANNELS 6 Xposition Yposition Zposition Zrotation Xrotation Yrotation
                  JOINT RightHandPinky2
                  {
                    OFFSET -3.6 0 0.0001
                    CHANNELS 6 Xposition Yposition Zposition Zrotation Xrotation Yrotation
                    JOINT RightHandPinky3
                    {
                      OFFSET -2.1142 0 0
                      CHANNELS 6 Xposition Yposition Zposition Zrotation Xrotation Yrotation
                      End Site
                      {
                        OFFSET -1.9757 0 0
                      }
                    }
                  }
                }
                JOINT RightHandRing1
                {
                  OFFSET -9.1036 -0.0439 -1.8651
                  CHANNELS 6 Xposition Yposition Zposition Zrotation Xrotation Yrotation
                  JOINT RightHandRing2
                  {
                    OFFSET -3.154 0 0
                    CHANNELS 6 Xposition Yposition Zposition Zrotation Xrotation Yrotation
                    JOINT RightHandRing3
                    {
                      OFFSET -2.9377 0 0
                      CHANNELS 6 Xposition Yposition Zposition Zrotation Xrotation Yrotation
                      End Site
                      {
                        OFFSET -2.6475 0 0
                      }
                    }
                  }
                }
                JOINT RightHandMiddle1
                {
                  OFFSET -9.5325 0 0
                  CHANNELS 6 Xposition Yposition Zposition Zrotation Xrotation Yrotation
                  JOINT RightHandMiddle2
                  {
                    OFFSET -3.6982 0 0
                    CHANNELS 6 Xposition Yposition Zposition Zrotation Xrotation Yrotation
                    JOINT RightHandMiddle3
                    {
                      OFFSET -2.9509 0 0
                      CHANNELS 6 Xposition Yposition Zposition Zrotation Xrotation Yrotation
                      End Site
                      {
                        OFFSET -2.8339 0 0.0001
                      }
                    }
                  }
                }
                JOINT RightHandIndex1
                {
                  OFFSET -9.1083 -0.5168 2.2601
                  CHANNELS 6 Xposition Yposition Zposition Zrotation Xrotation Yrotation
                  JOINT RightHandIndex2
                  {
                    OFFSET -3.6764 0 0
                    CHANNELS 6 Xposition Yposition Zposition Zrotation Xrotation Yrotation
                    JOINT RightHandIndex3
                    {
                      OFFSET -2.8831 0 0
                      CHANNELS 6 Xposition Yposition Zposition Zrotation Xrotation Yrotation
                      End Site
                      {
                        OFFSET -2.3927 0 0
                      }
                    }
                  }
                }
                JOINT RightHandThumb1
                {
                  OFFSET -2.4648 -1.5727 2.6826
                  CHANNELS 6 Xposition Yposition Zposition Zrotation Xrotation Yrotation
                  JOINT RightHandThumb2
                  {
                    OFFSET -3.2298 -1.8647 1.8647
                    CHANNELS 6 Xposition Yposition Zposition Zrotation Xrotation Yrotation
                    JOINT RightHandThumb3
                    {
                      OFFSET -2.6526 -1.5314 1.5314
                      CHANNELS 6 Xposition Yposition Zposition Zrotation Xrotation Yrotation
                      End Site
                      {
                        OFFSET -1.9546 -1.1285 1.1285
                      }
                    }
                  }
                }
              }
            }
          }
        }
      }
    }
  }
  JOINT LeftUpLeg
  {
    OFFSET 8.2078 -6.7517 -1.5996
    CHANNELS 6 Xposition Yposition Zposition Zrotation Xrotation Yrotation
    JOINT LeftLeg
    {
      OFFSET 0 -44.3705 0.2846
      CHANNELS 6 Xposition Yposition Zposition Zrotation Xrotation Yrotation
      JOINT LeftFoot
      {
        OFFSET 0 -44.4279 -2.9822
        CHANNELS 6 Xposition Yposition Zposition Zrotation Xrotation Yrotation
        JOINT LeftToeBase
        {
          OFFSET 0 -8.7287 10.7106
          CHANNELS 6 Xposition Yposition Zposition Zrotation Xrotation Yrotation
          End Site
          {
            OFFSET 0 -0.0007 9.2781
          }
        }
      }
    }
  }
  JOINT RightUpLeg
  {
    OFFSET -8.2078 -6.7517 -1.5996
    CHANNELS 6 Xposition Yposition Zposition Zrotation Xrotation Yrotation
    JOINT RightLeg
    {
      OFFSET 0 -44.3705 0.2862
      CHANNELS 6 Xposition Yposition Zposition Zrotation Xrotation Yrotation
      JOINT RightFoot
      {
        OFFSET 0 -44.4277 -2.9838
        CHANNELS 6 Xposition Yposition Zposition Zrotation Xrotation Yrotation
        JOINT RightToeBase
        {
          OFFSET 0 -8.7287 10.7106
          CHANNELS 6 Xposition Yposition Zposition Zrotation Xrotation Yrotation
          End Site
          {
            OFFSET 0 -0.0007 9.2781
          }
        }
      }
    }
  }
}
MOTION
Frames:	4
Frame Time:	0.0333333
-5.04345 99.448 -0.47129 14.2407 19.493 -40.3161 0 10.1816 0.1315 2.75996 -1.00287 1.90127 2.22045e-016 10.0835 -1.0008 3.22471 -2.18175 2.65946 -8.88178e-016 9.1 -1.3734 3.20864 -2.22516 2.63573 0 16.6717 -2.5162 1.14475 -3.1386 -0.798067 -3.55271e-015 9.6179 1.685 -12.1472 2.41178 -0.172842 -3.55271e-015 17.8152 2.585 1.59028e-015 0 -1.27222e-014 3.0676 6.4095 9.2836 1.59028e-015 0 -1.27222e-014 -3.0676 6.4095 9.2835 1.59028e-015 0 -1.27222e-014 4.5704 10.946 -2.628 -4.54663 -1.04789 7.52585 10.5924 -0.5246 -2.2321 -87.9606 54.4227 16.2749 27.8415 -0.0001 0 -0.000204892 4.15904e-006 -8.15358 28.3288 -3.55271e-015 7.10543e-015 22.1035 -32.2295 5.21993 2.4661 -1.575 2.6824 6.13847 -1.1463 3.82721 3.2298 -1.8647 1.8647 0.739154 4.04322 7.89738 2.6526 -1.5315 1.5315 2.53742 -0.50848 1.5998 9.1093 -0.5171 2.2601 7.52524e-006 -1.20839e-006 9.82536e-006 3.6764 -7.10543e-015 0 2.69778e-006 2.36815e-006 -8.24094e-009 2.8831 -7.10543e-015 0 1.28733e-006 -2.20414e-006 -1.10207e-006 9.5334 0 0 0.0159904 -2.78147e-006 -0.00191491 3.6982 -7.10543e-015 0 -0.0159802 3.40724e-006 0.00192473 2.9509 0 0 -3.18055e-015 6.36111e-015 -5.56597e-015 9.1045 -0.0439 -1.8651 7.52524e-006 -1.20839e-006 9.82536e-006 3.154 1.42109e-014 0 2.69778e-006 2.36815e-006 -8.24094e-009 2.9377 0 -7.10543e-015 1.28733e-006 -2.20414e-006 -1.10207e-006 8.0778 -0.4887 -3.8061 0.507956 0.0179792 4.05449 3.6 7.10543e-015 0 -0.50796 0.0179834 -4.05449 2.1142 7.10543e-015 -1.42109e-014 1.18448e-005 -7.05501e-006 9.98936e-006 -4.57 10.9462 -2.628 -8.71346 0.0488932 -0.262412 -10.5928 -0.5248 -2.2321 62.0276 -43.8878 83.4791 -27.8415 0 -1.42109e-014 -6.24901e-006 9.44235e-006 28.3281 -28.3288 1.42109e-014 0.0001 -46.3941 -5.13744 2.56058 -8.0767 -0.4885 -3.806 2.01033e-006 2.68817e-006 -0.00159115 -3.6 0 0.0001 4.92042e-005 -4.45595e-006 0.00158159 -2.1142 0 0 -1.59028e-015 1.59028e-015 -3.97569e-016 -9.1036 -0.0439 -1.8651 -1.59028e-015 -1.59028e-015 1.07344e-014 -3.154 0 1.42109e-014 5.62963e-006 -3.22122e-006 1.39631e-006 -2.9377 0 -1.42109e-014 -1.59028e-015 -3.18055e-015 -5.96354e-015 -9.5325 0 0 -1.59028e-015 -1.59028e-015 1.07344e-014 -3.6982 0 -1.42109e-014 3.98564e-006 -1.05928e-006 3.51773e-006 -2.9509 0 0 -1.96825e-006 -6.07946e-006 -0.00201587 -9.1083 -0.5168 2.2601 -1.59028e-015 -1.59028e-015 1.07344e-014 -3.6764 0 -1.42109e-014 1.59028e-015 0 -6.36111e-015 -2.8831 0 0 -1.59028e-015 4.77083e-015 -7.95139e-016 -2.4648 -1.5727 2.6826 -6.58322 -1.43647 -3.76368 -3.2298 -1.8647 1.8647 -0.219585 4.67209 -8.61486 -2.6526 -1.5314 1.5314 -2.09689 -1.27757 0.0886366 8.2078 -6.7517 -1.5996 7.81157 -21.5412 14.0363 -1.77636e-015 -44.3705 0.2846 4.25307 16.2747 9.36083 3.55271e-015 -44.4279 -2.9822 -13.7022 -14.9932 10.8702 0 -8.7287 10.7106 -1.01903e-006 -0.000216103 4.47583e-006 -8.2078 -6.7517 -1.5996 -0.215292 -43.8528 2.12934 3.55271e-015 -44.3705 0.2862 -3.39282 25.3128 -1.72179 0 -44.4277 -2.9838 5.53709 -5.20771 0.0857058 -3.55271e-015 -8.7287 10.7106 1.87153e-008 -9.38225e-005 -6.36111e-015 
-4.24441 99.4525 -0.780263 15.5315 19.8443 -38.0412 -4.44089e-016 10.1816 0.1315 2.98012 -0.768722 1.58228 4.44089e-016 10.0835 -1.0008 3.12332 -1.84199 1.8478 -1.77636e-015 9.1 -1.3734 3.1186 -1.87596 1.81377 3.55271e-015 16.6717 -2.5162 0.627981 -4.70638 -0.624773 0 9.6179 1.685 -12.8827 -0.861067 -0.636171 0 17.8152 2.585 7.95139e-016 -1.59028e-015 -0 3.0676 6.4095 9.2836 7.95139e-016 -1.59028e-015 -0 -3.0676 6.4095 9.2835 7.95139e-016 -1.59028e-015 -0 4.5704 10.946 -2.628 -4.44812 -1.01602 7.4309 10.5924 -0.5246 -2.2321 -85.9645 54.4408 13.7889 27.8415 -0.0001 -1.42109e-014 -0.000199068 1.11825e-005 -9.73502 28.3288 0 0 26.5158 -33.6968 5.51372 2.4661 -1.575 2.6824 6.13847 -1.1463 3.82721 3.2298 -1.8647 1.8647 0.739154 4.04322 7.89738 2.6526 -1.5315 1.5315 2.53742 -0.50848 1.5998 9.1093 -0.5171 2.2601 7.52524e-006 -1.20839e-006 9.82536e-006 3.6764 -7.10543e-015 -7.10543e-015 2.69778e-006 2.36815e-006 -8.24095e-009 2.8831 0 0 1.28733e-006 -2.20414e-006 -1.10207e-006 9.5334 7.10543e-015 -7.10543e-015 0.0159904 -2.78147e-006 -0.00191491 3.6982 0 0 -0.0159802 3.40724e-006 0.00192473 2.9509 0 -7.10543e-015 -3.18055e-015 6.36111e-015 4.77083e-015 9.1045 -0.0439 -1.8651 7.52524e-006 -1.20839e-006 9.82536e-006 3.154 0 0 2.69778e-006 2.36815e-006 -8.24095e-009 2.9377 7.10543e-015 0 1.28733e-006 -2.20414e-006 -1.10207e-006 8.0778 -0.4887 -3.8061 0.507956 0.0179792 4.05449 3.6 7.10543e-015 0 -0.50796 0.0179834 -4.05449 2.1142 0 0 1.18448e-005 -7.05501e-006 9.98936e-006 -4.57 10.9462 -2.628 -8.36678 0.0636202 -0.130562 -10.5928 -0.5248 -2.2321 58.3938 -46.5253 81.2599 -27.8415 -1.42109e-014 0 -1.07522e-005 3.41531e-006 32.3311 -28.3288 1.42109e-014 0.0001 -53.3445 -14.4609 -7.85015 -8.0767 -0.4885 -3.806 1.0086e-006 6.13302e-006 -0.00159479 -3.6 0 0.0001 4.92042e-005 -4.45595e-006 0.00158159 -2.1142 0 0 -3.18055e-015 5.1684e-015 -5.76476e-015 -9.1036 -0.0439 -1.8651 1.73798e-031 -2.78299e-015 3.57812e-015 -3.154 0 1.42109e-014 5.62963e-006 -3.22122e-006 1.39631e-006 -2.9377 -1.42109e-014 1.42109e-014 -3.18055e-015 3.18055e-015 -7.85199e-015 -9.5325 0 0 1.73798e-031 -2.78299e-015 3.57812e-015 -3.6982 1.42109e-014 2.84217e-014 3.98564e-006 -1.05928e-006 3.51773e-006 -2.9509 -1.42109e-014 1.42109e-014 -1.96825e-006 -6.07946e-006 -0.00201587 -9.1083 -0.5168 2.2601 1.73798e-031 -2.78299e-015 3.57812e-015 -3.6764 0 0 -3.18055e-015 -2.78299e-015 6.95746e-016 -2.8831 -1.42109e-014 1.42109e-014 1.53107e-031 1.19271e-015 -7.35503e-015 -2.4648 -1.5727 2.6826 -6.58323 -1.43646 -3.76368 -3.2298 -1.8647 1.8647 -0.219585 4.67209 -8.61486 -2.6526 -1.5314 1.5314 -2.09689 -1.27757 0.0886366 8.2078 -6.7517 -1.5996 6.19959 -23.3106 12.4584 -1.77636e-015 -44.3705 0.2846 3.70065 15.7943 9.40595 0 -44.4279 -2.9822 -12.9971 -14.0857 9.07368 3.55271e-015 -8.7287 10.7106 3.11775e-006 -0.147641 4.05522e-014 -8.2078 -6.7517 -1.5996 -3.32408 -45.3141 -0.562764 0 -44.3705 0.2862 -4.10996 25.7067 -2.27953 0 -44.4277 -2.9838 6.36518 -5.00981 0.00313405 0 -8.7287 10.7106 4.06509e-007 -9.70884e-005 -3.81667e-014 
-3.55543 99.3168 -0.960014 17.269 20.2821 -35.6983 4.44089e-016 10.1816 0.1315 3.22446 -0.574932 1.42313 0 10.0835 -1.0008 2.73818 -1.56606 1.22751 -1.77636e-015 9.1 -1.3734 2.73888 -1.59322 1.18327 3.55271e-015 16.6717 -2.5162 0.220906 -6.29485 -0.420094 -7.10543e-015 9.6179 1.685 -13.5903 -5.81906 -1.01461 1.77636e-015 17.8152 2.585 -0 0 9.54166e-015 3.0676 6.4095 9.2836 -0 0 9.54166e-015 -3.0676 6.4095 9.2835 -0 0 9.54166e-015 4.5704 10.946 -2.628 -4.26335 -0.954474 7.2507 10.5924 -0.5246 -2.2321 -85.0944 54.7408 13.1906 27.8415 -0.0001 0 -0.000209366 6.14086e-006 -10.6816 28.3288 0 0 26.886 -33.5677 3.79343 2.4661 -1.575 2.6824 6.13847 -1.1463 3.82721 3.2298 -1.8647 1.8647 0.739154 4.04322 7.89738 2.6526 -1.5315 1.5315 2.53742 -0.50848 1.5998 9.1093 -0.5171 2.2601 7.52524e-006 -1.20839e-006 9.82536e-006 3.6764 7.10543e-015 0 2.69778e-006 2.36815e-006 -8.24094e-009 2.8831 0 0 1.28733e-006 -2.20414e-006 -1.10207e-006 9.5334 0 0 0.0159904 -2.78147e-006 -0.00191491 3.6982 0 0 -0.0159802 3.40724e-006 0.00192473 2.9509 0 -7.10543e-015 3.18055e-015 0 4.77083e-015 9.1045 -0.0439 -1.8651 7.52524e-006 -1.20839e-006 9.82536e-006 3.154 7.10543e-015 0 2.69778e-006 2.36815e-006 -8.24094e-009 2.9377 7.10543e-015 0 1.28733e-006 -2.20414e-006 -1.10207e-006 8.0778 -0.4887 -3.8061 0.507956 0.0179792 4.05449 3.6 -7.10543e-015 0 -0.50796 0.0179834 -4.05449 2.1142 7.10543e-015 0 1.18448e-005 -7.05501e-006 9.98936e-006 -4.57 10.9462 -2.628 -8.21701 0.0730633 0.119695 -10.5928 -0.5248 -2.2321 57.4974 -52.0184 83.0838 -27.8415 -1.42109e-014 0 4.44458e-008 5.78676e-007 36.0892 -28.3288 -1.42109e-014 0.0001 -44.0629 -23.5966 -10.1188 -8.0767 -0.4885 -3.806 -2.29023e-006 -9.69123e-006 -0.00158556 -3.6 0 0.0001 4.92042e-005 -4.45595e-006 0.00158159 -2.1142 -7.10543e-015 0 2.20695e-031 3.97569e-015 -3.18055e-015 -9.1036 -0.0439 -1.8651 1.45911e-006 6.19838e-007 5.14964e-006 -3.154 7.10543e-015 -1.42109e-014 5.62963e-006 -3.22122e-006 1.39631e-006 -2.9377 7.10543e-015 -1.42109e-014 -1.59028e-015 7.95139e-016 7.95139e-016 -9.5325 0 -7.10543e-015 1.45911e-006 6.19838e-007 5.14964e-006 -3.6982 0 -7.10543e-015 3.98564e-006 -1.05928e-006 3.51773e-006 -2.9509 0 1.42109e-014 -1.96825e-006 -6.07946e-006 -0.00201587 -9.1083 -0.5168 2.2601 1.45911e-006 6.19838e-007 5.14964e-006 -3.6764 -7.10543e-015 1.42109e-014 3.64147e-031 -2.38542e-015 8.74653e-015 -2.8831 -7.10543e-015 0 2.07454e-030 -6.36111e-015 1.86858e-014 -2.4648 -1.5727 2.6826 -6.58322 -1.43647 -3.76368 -3.2298 -1.8647 1.8647 -0.219585 4.67209 -8.61486 -2.6526 -1.5314 1.5314 -2.09689 -1.27757 0.0886366 8.2078 -6.7517 -1.5996 3.99497 -25.2144 10.3618 0 -44.3705 0.2846 3.1883 15.3305 9.30756 0 -44.4279 -2.9822 -12.2991 -13.3378 7.78122 3.55271e-015 -8.7287 10.7106 -3.57786e-006 -2.44884e-005 5.66453e-006 -8.2078 -6.7517 -1.5996 -7.2365 -47.2117 -3.72951 -1.77636e-015 -44.3705 0.2862 -4.98009 26.9425 -2.68086 0 -44.4277 -2.9838 7.33938 -5.30968 -0.0100766 0 -8.7287 10.7106 -2.38293e-006 -9.6021e-005 7.99585e-006 
-3.23307 99.1144 -0.8963 18.8623 20.5697 -34.797 -8.88178e-016 10.1816 0.1315 3.2958 -0.476653 1.6275 0 10.0835 -1.0008 2.00677 -1.4495 1.29875 1.77636e-015 9.1 -1.3734 2.01075 -1.48268 1.2488 3.55271e-015 16.6717 -2.5162 -0.0968065 -7.70983 -0.211643 -3.55271e-015 9.6179 1.685 -13.6251 -11.0037 -1.27307 -3.55271e-015 17.8152 2.585 -0 0 6.36111e-015 3.0676 6.4095 9.2836 -0 0 6.36111e-015 -3.0676 6.4095 9.2835 -0 0 6.36111e-015 4.5704 10.946 -2.628 -4.21656 -0.934942 7.19043 10.5924 -0.5246 -2.2321 -84.6171 54.295 14.4401 27.8415 -0.0001 -1.42109e-014 -0.000205547 1.51203e-005 -10.7419 28.3288 -2.66454e-015 0 23.5424 -31.221 1.1424 2.4661 -1.575 2.6824 6.13847 -1.1463 3.82721 3.2298 -1.8647 1.8647 0.739154 4.04322 7.89738 2.6526 -1.5315 1.5315 2.53742 -0.50848 1.5998 9.1093 -0.5171 2.2601 7.52524e-006 -1.20839e-006 9.82536e-006 3.6764 0 0 2.69778e-006 2.36815e-006 -8.24094e-009 2.8831 0 7.10543e-015 1.28733e-006 -2.20414e-006 -1.10207e-006 9.5334 0 0 0.0159904 -2.78147e-006 -0.00191491 3.6982 0 0 -0.0159802 3.40724e-006 0.00192473 2.9509 0 0 -5.56597e-015 0 -2.38542e-015 9.1045 -0.0439 -1.8651 7.52524e-006 -1.20839e-006 9.82536e-006 3.154 -7.10543e-015 0 2.69778e-006 2.36815e-006 -8.24094e-009 2.9377 0 7.10543e-015 1.28733e-006 -2.20414e-006 -1.10207e-006 8.0778 -0.4887 -3.8061 0.507956 0.0179792 4.05449 3.6 0 -7.10543e-015 -0.50796 0.0179834 -4.05449 2.1142 0 -7.10543e-015 1.18448e-005 -7.05501e-006 9.98936e-006 -4.57 10.9462 -2.628 -8.25155 0.0729627 0.195168 -10.5928 -0.5248 -2.2321 50.0359 -59.8195 79.527 -27.8415 -1.42109e-014 1.42109e-014 -2.15723e-006 1.21862e-005 37.5165 -28.3288 -1.42109e-014 0.0001 -29.3093 -27.6859 -12.194 -8.0767 -0.4885 -3.806 4.9065e-007 1.16123e-005 -0.00159873 -3.6 -1.77636e-015 0.0001 4.92042e-005 -4.45595e-006 0.00158159 -2.1142 0 -1.42109e-014 7.95139e-016 0 -2.13694e-015 -9.1036 -0.0439 -1.8651 3.97569e-016 -1.59028e-015 -8.44835e-016 -3.154 -1.77636e-015 1.42109e-014 5.62963e-006 -3.22122e-006 1.39631e-006 -2.9377 5.32907e-015 -1.42109e-014 1.59028e-015 0 -5.91384e-015 -9.5325 1.77636e-015 1.42109e-014 3.97569e-016 -1.59028e-015 -8.44835e-016 -3.6982 1.77636e-015 0 3.98564e-006 -1.05928e-006 3.51773e-006 -2.9509 1.77636e-015 -1.42109e-014 -1.96825e-006 -6.07946e-006 -0.00201587 -9.1083 -0.5168 2.2601 3.97569e-016 -1.59028e-015 -8.44835e-016 -3.6764 -3.55271e-015 1.42109e-014 7.95139e-016 -7.95139e-016 -4.07509e-015 -2.8831 0 -2.84217e-014 7.95139e-016 0 -1.05853e-014 -2.4648 -1.5727 2.6826 -6.58323 -1.43646 -3.76369 -3.2298 -1.8647 1.8647 -0.219585 4.67209 -8.61486 -2.6526 -1.5314 1.5314 -2.09689 -1.27757 0.0886366 8.2078 -6.7517 -1.5996 2.29907 -26.42 9.00181 0 -44.3705 0.2846 2.73895 15.1009 9.31812 0 -44.4279 -2.9822 -11.8139 -13.1489 7.2088 -3.55271e-015 -8.7287 10.7106 6.96719e-007 -6.13548e-005 2.12535e-006 -8.2078 -6.7517 -1.5996 -9.83897 -48.7949 -5.27851 -1.77636e-015 -44.3705 0.2862 -5.77317 28.2093 -2.71829 0 -44.4277 -2.9838 8.14264 -5.8046 0.0113676 0 -8.7287 10.7106 1.14093e-006 -9.52406e-005 -2.67228e-006 
